<?xml version="1.0" standalone="no"?>
<!DOCTYPE svg PUBLIC "-//W3C//DTD SVG 20010904//EN"
 "http://www.w3.org/TR/2001/REC-SVG-20010904/DTD/svg10.dtd">
<svg version="1.0" xmlns="http://www.w3.org/2000/svg"
 width="512.000000pt" height="512.000000pt" viewBox="0 0 512.000000 512.000000"
 preserveAspectRatio="xMidYMid meet">
<metadata>
Created by potrace 1.14, written by Peter Selinger 2001-2017
</metadata>
<g transform="translate(0.000000,512.000000) scale(0.100000,-0.100000)"
fill="#000000" stroke="none">
<path d="M2378 4955 c-2 -2 -37 -6 -78 -10 -41 -4 -84 -9 -95 -11 -11 -2 -45
-8 -75 -14 -30 -5 -64 -11 -75 -14 -11 -2 -42 -9 -70 -16 -141 -32 -336 -104
-497 -185 -116 -58 -292 -165 -360 -219 -14 -11 -41 -32 -59 -46 -19 -14 -58
-47 -89 -74 -239 -212 -438 -472 -573 -748 -78 -161 -161 -389 -181 -498 -2
-14 -11 -54 -19 -90 -8 -36 -18 -92 -22 -125 -4 -33 -10 -91 -15 -130 -10 -93
-5 -433 8 -515 6 -36 14 -85 17 -110 3 -25 20 -101 37 -170 89 -362 275 -720
517 -995 71 -80 234 -237 309 -297 191 -152 461 -304 680 -383 57 -20 111 -38
120 -41 9 -2 60 -15 112 -28 229 -58 325 -70 580 -70 161 -1 343 9 360 19 3 1
25 6 50 9 125 17 315 69 480 133 96 36 288 132 364 181 23 15 52 32 64 39 13
7 76 52 140 100 126 94 320 282 418 403 85 106 203 287 266 410 47 91 125 271
133 304 1 6 7 23 13 37 9 23 30 92 36 124 2 6 8 28 14 50 6 22 14 54 16 70 3
17 8 41 11 55 17 81 17 79 32 205 14 126 6 575 -12 605 -2 3 -6 26 -10 50 -52
357 -220 740 -468 1068 -85 113 -282 315 -392 402 -240 190 -548 352 -823 431
-99 29 -269 66 -337 74 -33 4 -69 10 -80 12 -22 5 -442 13 -447 8z"/>
</g>
</svg>
